<svg
  width="256"
  height="256"
  viewBox="0 0 256 256"
  fill="none"
  xmlns="http://www.w3.org/2000/svg"
>
  <path
    d="M128 4.33604C196.298 4.33604 251.664 59.7023 251.664 128C251.664 196.298 196.298 251.664 128 251.664C59.7023 251.664 4.33603 196.298 4.33603 128C4.33603 59.7023 59.7023 4.33604 128 4.33604Z"
    fill="#ADA7FB"
    stroke="black"
    stroke-width="6.25"
  />
  <path
    d="M199.805 227.729H68.5095L63.3062 232.065C75.5051 237.384 105.418 248.889 127.48 252.358C149.541 255.827 184.889 237.384 199.805 227.729Z"
    fill="#88725D"
    stroke="#88725D"
    stroke-width="5"
  />
  <path d="M117.94 227.556L117.247 216.629" stroke="#88725D" stroke-width="5" />
  <path
    d="M148.813 217.496L166.934 171.36L222.352 173.892L197.162 227.902H116.553L117.073 218.19L148.813 217.496Z"
    fill="#CDC0A5"
    stroke="black"
    stroke-width="2.75"
  />
  <path
    d="M176.732 117.247C159.827 115.119 138.025 97.8485 135.631 89.149L168.205 103.198L186.623 106.503L176.732 117.247Z"
    fill="#F1F1F1"
  />
  <path
    d="M82.3848 196.683C78.5691 214.027 76.4878 214.201 73.5393 219.924L68.3361 227.902H117.94V217.843C101.29 201.47 87.2991 196.914 82.3848 196.683Z"
    fill="#536A18"
    stroke="black"
    stroke-width="1.5"
    stroke-linecap="round"
    stroke-linejoin="round"
  />
  <path
    d="M22.374 188.878C35.6135 164.885 64.8672 116.553 75.9675 115.165C84.709 108.921 88.3974 101.579 89.1491 98.6883C98.168 80.5349 121.479 45.6499 142.569 51.3388C168.932 58.4499 186.45 76.6612 188.531 81.1707C190.612 85.6802 191.133 102.331 187.144 105.799C183.952 108.575 176.332 106.956 172.921 105.799C162.053 102.273 136.735 88.209 136.325 90.1897C135.92 91.4038 135.944 94.8726 139.274 99.0352C140.277 99.9791 148.869 109.561 155.751 113.604C165.055 119.071 173.238 118.777 174.136 119.675C165.984 125.225 155.751 124.358 139.794 117.767C132.452 112.679 117.177 107.291 114.818 126.439C111.87 150.374 128.867 144.997 133.203 156.271C136.672 165.29 143.089 170.667 145.865 172.228C148.351 175.581 153.843 183.571 155.924 188.705C158.526 195.122 151.588 201.713 148.466 201.713C145.344 201.713 145.344 201.019 139.794 195.122C137.435 193.457 133.955 185.872 132.509 182.287C131.237 179.917 128.035 174.482 125.398 171.707C123.142 169.332 121.062 164.159 119.967 160.87C121.16 165.211 121.756 171.878 121.756 173.268C121.756 175.462 117.882 187.895 117.073 194.428C124.184 197.377 135.285 210.905 137.366 217.843H117.94C101.29 201.47 87.2991 196.914 82.3848 196.683C80.3035 214.027 69.6657 228.076 64.1735 232.932C39.6141 221.971 26.0741 198.996 22.374 188.878Z"
    fill="#7C992F"
  />
  <path
    d="M82.3848 196.683C80.3035 214.027 69.6657 228.076 64.1735 232.932C39.6141 221.971 26.0741 198.996 22.374 188.878C35.6135 164.885 64.8672 116.553 75.9675 115.165C84.709 108.921 88.3974 101.579 89.1491 98.6883C98.168 80.5349 121.479 45.6499 142.569 51.3388C168.932 58.4499 186.45 76.6612 188.531 81.1707C190.612 85.6802 191.133 102.331 187.144 105.799C183.952 108.575 176.332 106.956 172.921 105.799C162.053 102.273 136.735 88.209 136.325 90.1897C135.92 91.4038 135.944 94.8726 139.274 99.0352C140.277 99.9791 148.869 109.561 155.751 113.604C165.055 119.071 173.238 118.777 174.136 119.675C165.984 125.225 155.751 124.358 139.794 117.767C132.452 112.679 117.177 107.291 114.818 126.439C111.87 150.374 128.867 144.997 133.203 156.271C136.672 165.29 143.089 170.667 145.865 172.228C148.351 175.581 153.843 183.571 155.924 188.705C158.526 195.122 151.588 201.713 148.466 201.713C145.344 201.713 145.344 201.019 139.794 195.122C137.435 193.457 133.955 185.872 132.509 182.287C131.237 179.917 128.035 174.482 125.398 171.707C122.762 168.932 120.369 162.341 119.501 159.393C121.004 163.498 121.756 171.707 121.756 173.268C121.756 175.462 117.882 187.895 117.073 194.428M82.3848 196.683C77.1237 192.058 65.6304 179.616 61.7453 166.851M82.3848 196.683C87.2991 196.914 101.29 201.47 117.94 217.843H137.366C135.285 210.905 124.184 197.377 117.073 194.428M117.073 194.428C110.327 191.631 102.793 183.964 100.076 180.206C100.076 180.206 95.2206 178.799 91.7507 175.176C86.4912 169.685 82.3848 156.271 82.3848 156.271"
    stroke="black"
    stroke-width="2.5"
    stroke-linecap="round"
    stroke-linejoin="round"
  />
  <path
    d="M152.802 63.8266C155.197 63.8266 157.138 65.7679 157.138 68.1626C157.138 70.5573 155.197 72.4986 152.802 72.4986C150.407 72.4986 148.466 70.5573 148.466 68.1626C148.466 65.7679 150.407 63.8266 152.802 63.8266Z"
    fill="black"
  />
  <path
    d="M152.976 66.6016C153.934 66.6016 154.71 67.3782 154.71 68.336C154.71 69.2939 153.934 70.0705 152.976 70.0705C152.018 70.0705 151.241 69.2939 151.241 68.336C151.241 67.3782 152.018 66.6016 152.976 66.6016Z"
    fill="#9F7D96"
  />
  <path
    d="M175.87 113.778C176.679 114.067 177.604 115.582 174.829 119.328C158.873 118.461 143.149 102.785 142.396 102.157C141.355 101.29 137.019 95.2195 137.192 93.1382C137.747 94.1095 153.41 106.053 162.688 109.789C167.678 111.797 175.87 113.778 175.87 113.778Z"
    fill="#BC3227"
    stroke="black"
    stroke-width="1.75"
  />
  <path
    d="M128 4.33604C196.298 4.33604 251.664 59.7023 251.664 128C251.664 196.298 196.298 251.664 128 251.664C59.7023 251.664 4.33603 196.298 4.33603 128C4.33603 59.7023 59.7023 4.33604 128 4.33604Z"
    stroke="black"
    stroke-width="6.25"
  />
  <path
    d="M128 4.33604C196.298 4.33604 251.664 59.7023 251.664 128C251.664 196.298 196.298 251.664 128 251.664C59.7023 251.664 4.33603 196.298 4.33603 128C4.33603 59.7023 59.7023 4.33604 128 4.33604Z"
    stroke="black"
    stroke-width="6.25"
  />
</svg>
